<svg xmlns="http://www.w3.org/2000/svg" viewBox="0 0 512 512">
  <rect width="512" height="512" rx="112" fill="#0f0f12"/>
  <rect width="512" height="512" rx="112" fill="url(#grad)"/>
  <defs>
    <linearGradient id="grad" x1="0" y1="0" x2="1" y2="1">
      <stop offset="0%" stop-color="#1a1a20"/>
      <stop offset="100%" stop-color="#0f0f12"/>
    </linearGradient>
  </defs>
  <!-- Flame body -->
  <path d="M256 96 C256 96 196 160 196 224 C196 252 208 272 226 284 C222 268 224 252 236 240 C236 240 240 280 264 296 C264 280 272 264 284 256 C296 280 296 304 280 320 C300 308 316 284 316 256 C316 232 304 212 292 196 C296 216 288 236 276 244 C276 244 284 200 256 96Z" fill="#fbbf24"/>
  <!-- Flame highlight -->
  <path d="M256 160 C256 160 232 196 232 228 C232 244 238 256 248 264 C246 254 248 244 256 236 C256 236 258 256 268 264 C272 252 272 240 264 232 C270 244 268 256 262 264 C274 256 280 240 276 224 C272 208 264 196 256 160Z" fill="#f97316" opacity="0.8"/>
  <!-- Word mark -->
  <text x="256" y="420" font-family="Georgia, serif" font-size="88" font-weight="700" fill="#e8e8f0" text-anchor="middle" letter-spacing="-2">streak</text>
  <circle cx="370" cy="400" r="10" fill="#a78bfa"/>
</svg>
